<?xml version="1.0" encoding="utf-8"?>
<svg id="master-artboard" viewBox="0 0 913.6105346679688 196.50576782226562" version="1.1" xmlns="http://www.w3.org/2000/svg" x="0px" y="0px" style="enable-background:new 0 0 336 235.2;" width="913.6105346679688px" height="196.50576782226562px"><defs><clipPath id="clip-path" transform="translate(25.67 13.89)"><path d="M 0 0 H 596.72998 V 134.520004 H 0 V 0 Z" style="fill:none"/></clipPath><clipPath id="clip-path-2" transform="translate(25.67 13.89)"><path d="M0,6.45s15.56,9.91,24.43,26.3c5.64,10.41,6.87,19.66,7.84,22.69C49.63,55.76,57,63.67,67,81.66c2.2,3.94,4.5,8,6.73,11.8a0,0,0,0,1,0,0s0,0,0,0h0c-3.15-4.86-6.78-10.27-10-14.62-7.2-9.81-16.54-19-30.79-19.31-3.34-.08-4.33-.07-5.59-.06s-3,0-8.2-.08C34.59,68,35.79,89.29,45.58,103.12c9,12.72,16.92,23.25,39.73,27.67,3.23.62,10.77,1.79,14.31,1.58-4.72-4-8.4-9.55-12.56-16.68A155.09,155.09,0,0,1,76.25,89.63C71.89,75.87,67.58,59,65.44,50c-4.37-18.26-11.61-34.9-33.17-41.4C25.8,6.69,13.4,6.37,6,6.37c-3.58,0-6,.07-6,.07" style="fill:none"/></clipPath><linearGradient id="linear-gradient" y1="134.52" x2="1" y2="134.52" gradientTransform="matrix(108.55, 0, 0, -108.55, -2.79, 14671.86)" gradientUnits="userSpaceOnUse"><stop offset="0" stop-color="#4e9b47"/><stop offset="0.33" stop-color="#6cad42"/><stop offset="1" stop-color="#a6ce39"/></linearGradient></defs><rect id="ee-background" x="0" y="0" width="913.6105346679688" height="196.50576782226562" style="fill: white; fill-opacity: 0; pointer-events: none;"/><g transform="matrix(0.6674931049346924, 0, 0, 0.6674931049346924, -23.617767333984375, -222.8286418914795)"><g transform="matrix(2.097348620079255, 0, 0, 2.097348620079255, 1.8149046462937468, 316.8264532965751)"><title>logo</title><g style="clip-path:url(#clip-path)"><path d="M126.19,26.87c.08-.28.15-.55.21-.83Z" transform="translate(25.67 13.89)" style="fill:#fff"/><path d="M200.85,130.75l-17,0q-4.67,0-5.23-2.52t.7-7.34a43.16,43.16,0,0,1-11.77,7.87q-7.49,3.61-18.69,3.58-13.27,0-18.26-5.25t-4.64-13.77a58.36,58.36,0,0,1,1.21-9.29q1-5,2.28-9.85l13.4-51.47a17.81,17.81,0,0,1,3.11-.46,55.14,55.14,0,0,1,5.68-.26,30.43,30.43,0,0,1,5.83.57,11.33,11.33,0,0,1,4.86,2.15,8.05,8.05,0,0,1,2.76,4.47,15.43,15.43,0,0,1-.46,7.53l-9.49,36.42q-1.11,4.28-1.73,7.71a15.17,15.17,0,0,0-.05,5.95,5.92,5.92,0,0,0,2.91,3.91q2.34,1.4,7.2,1.41a27.51,27.51,0,0,0,12.62-2.85q5.7-2.87,6.81-7.14l15.44-59.27a17.82,17.82,0,0,1,3.11-.46,55.15,55.15,0,0,1,5.68-.27,25.82,25.82,0,0,1,5.81.67,10.65,10.65,0,0,1,4.79,2.43A9,9,0,0,1,220.38,50a16.7,16.7,0,0,1-.51,7.71Z" transform="translate(25.67 13.89)" style="fill:#0f0708"/><path d="M226.58,117.43a30.09,30.09,0,0,1,.35-7.81q.69-4.09,1.75-8.18l22.45-86.21,2.9-.36q1.35-.18,2.88-.27t3-.08a30.26,30.26,0,0,1,5.83.57,10.56,10.56,0,0,1,4.84,2.24,8.6,8.6,0,0,1,2.74,4.56,15.46,15.46,0,0,1-.46,7.53l-3.39,13,26.16.06-4.94,19-26.16-.07L254.2,101.14q-3.39,13,7.26,13a16.47,16.47,0,0,0,5.17-.82,45.13,45.13,0,0,0,4.78-1.85,24.41,24.41,0,0,0,3.83-2.13q1.59-1.11,2.3-1.67a47.19,47.19,0,0,1,2.46,7.07,11.33,11.33,0,0,1,0,5.58,10,10,0,0,1-3.2,4.73,27.68,27.68,0,0,1-6.62,4.26,44.12,44.12,0,0,1-9.42,3.14,51.43,51.43,0,0,1-11.34,1.18q-11.77,0-17-4.5a17.13,17.13,0,0,1-5.92-11.73" transform="translate(25.67 13.89)" style="fill:#0f0708"/><path d="M334.42,51.88a42.15,42.15,0,0,1,4.05-3.71,36.11,36.11,0,0,1,12.16-6.48,24.25,24.25,0,0,1,7.3-1.1,31,31,0,0,1,4.67.38,13.22,13.22,0,0,1,4.31,1.4,5.77,5.77,0,0,1,2.9,7.17,33.84,33.84,0,0,1-4.48,9.28,101.42,101.42,0,0,1-6.48,9.09,19.39,19.39,0,0,0-5.31-4,16,16,0,0,0-7.11-1.41,18.06,18.06,0,0,0-10.59,3.32,14.08,14.08,0,0,0-6,8L314.93,131,289.52,131,312.4,43.09l2.34-.37c.78-.12,1.67-.21,2.69-.27s2.2-.09,3.57-.08a18.48,18.48,0,0,1,9.76,2.35,7.57,7.57,0,0,1,3.65,7.17" transform="translate(25.67 13.89)" style="fill:#0f0708"/><path d="M385.66,132.32a12.77,12.77,0,0,1-3.51.55q-2.67.18-5.65.17-7.29,0-11.06-3.1t-1.36-12.37l19.35-74.32a17.77,17.77,0,0,1,3.11-.46,55.12,55.12,0,0,1,5.68-.27,30.24,30.24,0,0,1,5.83.57,11.33,11.33,0,0,1,4.86,2.15,8.07,8.07,0,0,1,2.76,4.47,15.48,15.48,0,0,1-.47,7.53ZM416.77,13.6a17.06,17.06,0,0,1-6.53,9.65,17.36,17.36,0,0,1-10.59,3.69q-5.79,0-8.75-3.74t-1.41-9.67A17.62,17.62,0,0,1,396,3.78,17.08,17.08,0,0,1,406.66,0a10.41,10.41,0,0,1,8.63,3.83q3,3.82,1.48,9.76" transform="translate(25.67 13.89)" style="fill:#0f0708"/><path d="M454.27,115.57a32.75,32.75,0,0,0,8.49-1,42.52,42.52,0,0,0,7-2.49,37.36,37.36,0,0,0,5.7-3.24q2.51-1.76,4.58-3.24a37.59,37.59,0,0,1,2.81,7.16,13.73,13.73,0,0,1,.57,7.16q-1.07,4.09-6.61,7.42a46.47,46.47,0,0,1-12.45,5.08,65.74,65.74,0,0,1-17.47,2.09,61.41,61.41,0,0,1-16.7-2.27,27.79,27.79,0,0,1-13.1-7.84q-5.18-5.59-6.85-15t2.06-23.7a63,63,0,0,1,8.9-20.15,58.79,58.79,0,0,1,13.37-14,52.94,52.94,0,0,1,15.86-8.14,54.69,54.69,0,0,1,16.37-2.56q10.46,0,16.9,3.29a22.34,22.34,0,0,1,9.59,8.76,26.51,26.51,0,0,1,3.37,12.56,52.6,52.6,0,0,1-1.82,14.87l-.68,2.6q-.39,1.49-.92,3.16l-1,3.25a23.4,23.4,0,0,1-.93,2.51l-54.93-.14q-1.92,10.22,1.93,17t16,6.82m18.23-37.7q2.32-8.92.32-14.5t-11-5.61A19.75,19.75,0,0,0,448.14,63q-5.87,5.28-8.33,14.76Z" transform="translate(25.67 13.89)" style="fill:#0f0708"/><path d="M524.09,131.55l-25.6-.06L521.38,43.6l2.34-.37q1.17-.18,2.69-.27t3.58-.08A20.06,20.06,0,0,1,539.79,45q3.83,2.15,3.55,7.54a43.14,43.14,0,0,1,11.77-7.87q7.48-3.61,18.69-3.58,13.26,0,18.26,5.25t4.64,13.77a58.89,58.89,0,0,1-1.21,9.29q-1,5-2.28,9.85l-13.64,52.39-25.41-.06,13.35-51.28q1.06-4.08,1.7-7.62a15.43,15.43,0,0,0,.08-6,5.94,5.94,0,0,0-2.91-3.91q-2.35-1.4-7.21-1.41a27.52,27.52,0,0,0-12.61,2.85q-5.7,2.87-6.81,7.14Z" transform="translate(25.67 13.89)" style="fill:#0f0708"/></g><g style="clip-path:url(#clip-path-2)"><path d="M -22.27 7.63 H 121.890003 V 131.320003 H -22.27 V 7.63 Z" transform="matrix(0.21, -0.98, 0.98, 0.21, -2.84, 117.64)" style="fill:url(#linear-gradient)"/></g><g style="clip-path:url(#clip-path)"><path d="M107.87,6.45l-24,92.21c4.88,12.31,9.51,22.53,16.87,29.25l26.36-101,.21-.83a16.72,16.72,0,0,0,.43-3.65c0-9.57-8.66-15.78-19.87-16" transform="translate(25.67 13.89)" style="fill:#0f0708"/><path d="M18.17,63.33.5,130.79H25.06l10.1-39c-4.54-12.94-9.17-22.87-17-28.46" transform="translate(25.67 13.89)" style="fill:#0f0708"/></g></g><path d="M 547.0396118164062 212 L 543.3995971679688 212 L 543.3995971679688 197.88999938964844 L 538.7495727539062 197.88999938964844 L 538.7495727539062 194.8699951171875 L 551.6895751953125 194.8699951171875 L 551.6895751953125 197.88999938964844 L 547.0396118164062 197.88999938964844 L 547.0396118164062 212 ZM 561.5743408203125 212 L 557.454345703125 198.55999755859375 L 557.3443603515625 198.55999755859375 C 557.4910278320312 201.2933349609375 557.5643920898438 203.11666870117188 557.5643920898438 204.02999877929688 L 557.5643920898438 212 L 554.3243408203125 212 L 554.3243408203125 194.8699951171875 L 559.2643432617188 194.8699951171875 L 563.3243408203125 207.97000122070312 L 563.3943481445312 207.97000122070312 L 567.6943969726562 194.8699951171875 L 572.6343383789062 194.8699951171875 L 572.6343383789062 212 L 569.25439453125 212 L 569.25439453125 203.88999938964844 C 569.25439453125 203.50999450683594 569.2576904296875 203.07000732421875 569.2643432617188 202.57000732421875 C 569.2777099609375 202.07000732421875 569.3310546875 200.74000549316406 569.4243774414062 198.5800018310547 L 569.3243408203125 198.5800018310547 L 564.9043579101562 212 L 561.5743408203125 212 Z" transform="matrix(2.079085350036621, 0, 0, 2.079085350036621, 205.13714599609375, 34.04485321044922)" style="fill: rgb(0, 0, 0); white-space: pre; color: rgb(0, 0, 0);"/></g></svg>