<?xml version="1.0" encoding="UTF-8" standalone="no"?>
<svg
   xmlns:dc="http://purl.org/dc/elements/1.1/"
   xmlns:cc="http://creativecommons.org/ns#"
   xmlns:rdf="http://www.w3.org/1999/02/22-rdf-syntax-ns#"
   xmlns:svg="http://www.w3.org/2000/svg"
   xmlns="http://www.w3.org/2000/svg"
   xmlns:sodipodi="http://sodipodi.sourceforge.net/DTD/sodipodi-0.dtd"
   xmlns:inkscape="http://www.inkscape.org/namespaces/inkscape"
   width="2500"
   height="720"
   viewBox="0 0 192.756 55.513759"
   version="1.1"
   id="svg10"
   sodipodi:docname="magma.svg"
   inkscape:version="0.92.3 (2405546, 2018-03-11)">
  <metadata
     id="metadata16">
    <rdf:RDF>
      <cc:Work
         rdf:about="">
        <dc:format>image/svg+xml</dc:format>
        <dc:type
           rdf:resource="http://purl.org/dc/dcmitype/StillImage" />
        <dc:title></dc:title>
      </cc:Work>
    </rdf:RDF>
  </metadata>
  <defs
     id="defs14" />
  <sodipodi:namedview
     pagecolor="#ffffff"
     bordercolor="#666666"
     borderopacity="1"
     objecttolerance="10"
     gridtolerance="10"
     guidetolerance="10"
     inkscape:pageopacity="0"
     inkscape:pageshadow="2"
     inkscape:window-width="1920"
     inkscape:window-height="1017"
     id="namedview12"
     showgrid="false"
     inkscape:zoom="0.53400704"
     inkscape:cx="1426.6517"
     inkscape:cy="112.16978"
     inkscape:window-x="0"
     inkscape:window-y="30"
     inkscape:window-maximized="1"
     inkscape:current-layer="g8" />
  <g
     id="g8"
     style="clip-rule:evenodd;fill-rule:evenodd"
     transform="translate(0,-137.2423)">
    <path
       d="M 3.1227693,142.95452 H 52.433769 v 49.237 H 3.1227693 Z"
       id="path4"
       inkscape:connector-curvature="0"
       style="fill:#cc2229" />
    <path
       d="m 16.175769,173.48252 h -5.583 v -34.806 h 4.641 l 17.041,24.945 -0.29,-24.945 h 6.019 l 19.506,34.806 h -6.381 l -12.763,-21.391 0.073,21.391 h -6.091 l -16.244,-24.146 z m 154.818001,-15.01 h 4.133 l -4.133,-6.599 -4.061,-6.744 v 13.342 h 4.061 z m 0,-15.372 19.217,30.382 h -5.439 l -6.236,-10.079 h -11.166 l -0.072,10.079 h -4.859 v -34.806 h 5.729 z m -43.363,30.382 h -4.932 v -34.806 h 5.004 l 12.689,26.902 12.836,-26.902 h 4.641 v 34.806 h -4.785 l 0.361,-24.582 -11.312,24.582 h -3.553 l -11.312,-24.074 z m -40.608001,-4.06 2.538,4.061 h -5.294 l -6.381,-10.08 h -11.167 v 10.079 h -4.931 v -34.806 h 5.801 l 2.755,4.424 z m 0,-3.917 a 11.666,11.666 0 0 0 1.958,2.611 c 1.812,2.029 3.771,3.48 5.945996,4.496 2.248,1.016 4.566998,1.521 7.179005,1.521 5.004,0 9.209,-1.666 12.473,-5.074 3.336,-3.408 5.076,-7.687 5.293,-13.125 H 98.333765 v 4.931 h 15.736005 c -1.232,2.755 -2.973,4.712 -5.004,6.164 -2.029,1.451 -4.422,2.104 -6.961,2.104 -1.596,0 -3.189007,-0.363 -4.785005,-1.016 -1.451,-0.652 -2.829,-1.668 -3.988996,-2.9 -1.233,-1.088 -2.03,-2.538 -2.61,-4.133 -0.725,-1.596 -0.943,-3.408 -0.943,-5.148 0,-1.741 0.29,-3.408 1.015,-5.004 0.653,-1.595 1.595,-3.045 2.756,-4.351 1.087996,-1.16 2.464996,-2.03 3.915996,-2.683 1.450998,-0.58 3.045005,-0.943 4.641005,-0.943 1.885,0 3.699,0.436 5.293,1.16 1.596,0.726 2.975,1.886 4.135,3.336 h 6.234 c -1.377,-3.046 -3.334,-5.438 -6.09,-7.034 -2.611,-1.668 -5.729,-2.466 -9.137,-2.466 -2.611009,0 -4.859005,0.363 -6.961005,1.233 -2.102996,0.798 -3.987996,2.103 -5.655996,3.771 -1.087,1.16 -2.103,2.393 -2.9,3.626 -0.363,0.798 -0.798,1.522 -1.16,2.32 -0.943,2.175 -1.378,4.496 -1.378,6.961 0,2.393 0.362,4.641 1.16,6.744 0.362,1.015 0.797,2.03 1.377,2.899 z m -16.679,-13.631 -4.061,-6.744 v 13.342 h 8.267 z"
       id="path6"
       inkscape:connector-curvature="0" />
  </g>
</svg>
