<?xml version="1.0" encoding="iso-8859-1"?>
<!-- Generator: Adobe Illustrator 19.0.0, SVG Export Plug-In . SVG Version: 6.00 Build 0)  -->
<svg version="1.1" id="Capa_1" xmlns="http://www.w3.org/2000/svg" xmlns:xlink="http://www.w3.org/1999/xlink" x="0px" y="0px"
	 viewBox="0 0 511.999 511.999" style="enable-background:new 0 0 511.999 511.999;" xml:space="preserve">
<path style="fill:#995D5C;" d="M429.994,451.997H82.007c-8.291,0-15-6.709-15-15c0-8.291,6.709-15,15-15h347.986
	c8.291,0,15,6.709,15,15C444.993,445.288,438.285,451.997,429.994,451.997z"/>
<path style="fill:#994D4D;" d="M429.994,421.998H256v30h173.993c8.291,0,15-6.709,15-15
	C444.993,428.707,438.285,421.998,429.994,421.998z"/>
<path style="fill:#995D5C;" d="M39.497,510.518c-7.471-3.589-10.605-12.539-7.031-20.01l72.012-150.999
	c3.633-7.485,12.568-10.635,20.039-7.031c7.471,3.589,10.605,12.539,7.031,20.01L59.536,503.487
	C55.91,510.964,46.962,514.094,39.497,510.518z"/>
<path style="fill:#994D4D;" d="M452.464,503.486l-71.982-150.999c-3.574-7.471-0.41-16.436,7.031-20.01
	c7.5-3.574,16.465-0.454,20.039,7.031l71.982,150.999c3.574,7.471,0.41,16.436-7.031,20.01
	C465.008,514.108,456.043,510.948,452.464,503.486z"/>
<path style="fill:#995D5C;" d="M286,89.999h-60c-8.291,0-15-6.709-15-15V45c0-24.814,20.186-45,45-45s45,20.186,45,45v30
	C300.999,83.291,294.29,89.999,286,89.999z"/>
<path style="fill:#994D4D;" d="M286,89.999c8.291,0,15-6.709,15-15V45c0-24.814-20.186-45-45-45v89.999H286z"/>
<path style="fill:#5C5F66;" d="M466.998,360.998H45.001c-8.291,0-15-6.709-15-15V104.999c0-24.814,20.186-45,45-45h360.998
	c24.814,0,46,20.186,46,45v240.999C481.998,354.289,475.289,360.998,466.998,360.998z"/>
<path style="fill:#53565C;" d="M436.999,60H256v300.998h210.999c8.291,0,15-6.709,15-15V104.999
	C481.998,80.186,461.814,60,436.999,60z"/>
<g>
	<path style="fill:#E6EEFF;" d="M286,180.999h-15v-15c0-8.291-6.709-15-15-15s-15,6.709-15,15v15h-15c-8.291,0-15,6.709-15,15
		s6.709,15,15,15h15v15c0,8.291,6.709,15,15,15c8.291,0,15-6.709,15-15v-15h15c8.291,0,15-6.709,15-15S294.29,180.999,286,180.999z"
		/>
	<path style="fill:#E6EEFF;" d="M157.211,195.999l19.395-19.395c5.859-5.859,5.859-15.352,0-21.211
		c-5.859-5.859-15.352-5.859-21.211,0L136,174.788l-19.395-19.395c-5.859-5.859-15.352-5.859-21.211,0
		c-5.859,5.859-5.859,15.352,0,21.211l19.395,19.395l-19.395,19.395c-5.859,5.859-5.859,15.352,0,21.211
		c5.86,5.86,15.351,5.86,21.211,0L136,217.21l19.395,19.395c5.86,5.86,15.351,5.86,21.211,0c5.859-5.859,5.859-15.352,0-21.211
		L157.211,195.999z"/>
</g>
<path style="fill:#DAE2F2;" d="M416.605,155.394c-5.859-5.859-15.352-5.859-21.211,0l-19.395,19.395l-19.395-19.395
	c-5.859-5.859-15.352-5.859-21.211,0c-5.859,5.859-5.859,15.352,0,21.211l25.605,25.605v23.789c0,8.291,6.709,15,15,15
	c8.291,0,15-6.709,15-15V202.21l25.605-25.605C422.464,170.745,422.464,161.253,416.605,155.394z"/>
<path style="fill:#FFBC33;" d="M405.999,360.998h-89.999c-8.291,0-15-6.709-15-15v-60c0-8.291,6.709-15,15-15h89.999
	c8.291,0,15,6.709,15,15v60C420.999,354.289,414.29,360.998,405.999,360.998z"/>
<path style="fill:#DAE2F2;" d="M271,225.999v-15h15c8.291,0,15-6.709,15-15s-6.709-15-15-15h-15v-15c0-8.291-6.709-15-15-15v89.999
	C264.291,240.999,271,234.29,271,225.999z"/>
<path style="fill:#B38078;" d="M496.998,360.998H15.001c-8.291,0-15-6.709-15-15c0-8.291,6.709-15,15-15h481.997
	c8.291,0,15,6.709,15,15C511.998,354.289,505.289,360.998,496.998,360.998z"/>
<path style="fill:#B37166;" d="M496.998,330.998H256v30h240.999c8.291,0,15-6.709,15-15
	C511.998,337.707,505.289,330.998,496.998,330.998z"/>
<g>
</g>
<g>
</g>
<g>
</g>
<g>
</g>
<g>
</g>
<g>
</g>
<g>
</g>
<g>
</g>
<g>
</g>
<g>
</g>
<g>
</g>
<g>
</g>
<g>
</g>
<g>
</g>
<g>
</g>
</svg>
