<svg id="Layer_1" height="512" viewBox="0 0 128 128" width="512" xmlns="http://www.w3.org/2000/svg" data-name="Layer 1"><path d="m121.5 64c0 .59-.01 1.17-.03 1.75a57 57 0 0 1 -6.83 25.5c-.64 1.19-1.32 2.36-2.05 3.5a57.6 57.6 0 0 1 -29.55 23.52 57.1 57.1 0 0 1 -17.29 3.2c-.58.02-1.16.03-1.75.03s-1.17-.01-1.75-.03a57.1 57.1 0 0 1 -17.29-3.2 57.6 57.6 0 0 1 -29.55-23.52c-.73-1.14-1.41-2.31-2.05-3.5a57 57 0 0 1 -6.83-25.5c-.02-.58-.03-1.16-.03-1.75s.01-1.17.03-1.75a57 57 0 0 1 6.83-25.5c.64-1.19 1.32-2.36 2.05-3.5a57.6 57.6 0 0 1 29.55-23.52 57.1 57.1 0 0 1 17.29-3.2c.58-.02 1.16-.03 1.75-.03s1.17.01 1.75.03a57.1 57.1 0 0 1 17.29 3.2 57.6 57.6 0 0 1 29.55 23.52c.73 1.14 1.41 2.31 2.05 3.5a57 57 0 0 1 6.83 25.5c.02.58.03 1.16.03 1.75z" fill="#85c646"/><path d="m121.47 65.75c.02-.58.03-1.16.03-1.75s-.01-1.17-.03-1.75h-24.11a119.041 119.041 0 0 0 -2.99-25.5h20.27c-.64-1.19-1.32-2.36-2.05-3.5h-19.1a75.065 75.065 0 0 0 -10.45-23.52 56.25 56.25 0 0 0 -5.77-1.69c5.33 6.06 9.66 14.75 12.59 25.21h-24.11v-26.72c-.58-.02-1.16-.03-1.75-.03s-1.17.01-1.75.03v26.72h-24.11c2.93-10.46 7.26-19.15 12.59-25.21a56.25 56.25 0 0 0 -5.77 1.69 75.065 75.065 0 0 0 -10.45 23.52h-19.1c-.73 1.14-1.41 2.31-2.05 3.5h20.27a119.041 119.041 0 0 0 -2.99 25.5h-24.11c-.02.58-.03 1.16-.03 1.75s.01 1.17.03 1.75h24.11a119.042 119.042 0 0 0 2.99 25.5h-20.27c.64 1.19 1.32 2.36 2.05 3.5h19.1a74.858 74.858 0 0 0 10.45 23.52 56.22 56.22 0 0 0 5.77 1.69c-5.33-6.06-9.66-14.75-12.59-25.21h24.11v26.72c.58.02 1.16.03 1.75.03s1.17-.01 1.75-.03v-26.72h24.11c-2.93 10.46-7.26 19.15-12.59 25.21a56.22 56.22 0 0 0 5.77-1.69 74.632 74.632 0 0 0 10.45-23.52h19.1c.73-1.14 1.41-2.31 2.05-3.5h-20.27a119.042 119.042 0 0 0 2.99-25.5zm-59.22 25.5h-25.01a114.861 114.861 0 0 1 -3.1-25.5h28.11zm0-29h-28.11a114.934 114.934 0 0 1 3.1-25.5h25.01zm28.51 29h-25.01v-25.5h28.11a114.934 114.934 0 0 1 -3.1 25.5zm-25.01-29v-25.5h25.01a114.861 114.861 0 0 1 3.1 25.5z" fill="#6a9e38"/><path d="m17.75 48.5h92.5v31h-92.5z" fill="#e4e4e4"/><g fill="#6a9e38"><path d="m29.794 56.625h2.941l3.156 10.563 3.5-10.563h2.92l3.478 10.563 3.156-10.563h2.941l-4.659 14.75h-2.683l-3.693-10.949-3.714 10.949h-2.662z"/><path d="m52.954 56.625h2.946l3.156 10.563 3.5-10.563h2.92l3.478 10.563 3.146-10.563h2.941l-4.659 14.75h-2.682l-3.689-10.949-3.711 10.949h-2.666z"/><path d="m76.114 56.625h2.941l3.156 10.563 3.5-10.563h2.92l3.478 10.563 3.156-10.563h2.941l-4.659 14.75h-2.684l-3.693-10.949-3.713 10.949h-2.663z"/></g></svg>