<?xml version="1.0" encoding="iso-8859-1"?>
<!-- Generator: Adobe Illustrator 19.0.0, SVG Export Plug-In . SVG Version: 6.00 Build 0)  -->
<svg version="1.1" id="Capa_1" xmlns="http://www.w3.org/2000/svg" xmlns:xlink="http://www.w3.org/1999/xlink" x="0px" y="0px"
	 viewBox="0 0 512 512" style="enable-background:new 0 0 512 512;" xml:space="preserve">
<path style="fill:#FEDB41;" d="M466,0H285c-24.901,0-45,22.099-45,47v150c0,24.899,20.099,45,45,45h181c24.901,0,46-20.101,46-45V47
	C512,22.099,490.901,0,466,0z"/>
<path style="fill:#FCBF29;" d="M512,47v150c0,24.899-21.099,45-46,45h-90V0h90C490.901,0,512,22.099,512,47z"/>
<path style="fill:#FD3018;" d="M135,212C60.601,212,0,272.599,0,347c0,8.399,6.599,15,15,15h240c8.401,0,15-6.601,15-15
	C270,272.599,209.399,212,135,212z"/>
<path style="fill:#E61E14;" d="M270,347c0,8.399-6.599,15-15,15H135V212C209.399,212,270,272.599,270,347z"/>
<path style="fill:#FD4E26;" d="M135,92c-41.4,0-75,33.6-75,75s33.6,75,75,75s75-33.6,75-75S176.4,92,135,92z"/>
<path style="fill:#FD3018;" d="M210,167c0,41.4-33.6,75-75,75V92C176.4,92,210,125.6,210,167z"/>
<g>
	<path style="fill:#0F60CF;" d="M315,182c-8.291,0-15-6.709-15-15v-30c0-8.291,6.709-15,15-15s15,6.709,15,15v30
		C330,175.291,323.291,182,315,182z"/>
	<path style="fill:#0F60CF;" d="M391,107v60c0,8.399-6.599,15-15,15s-15-6.601-15-15v-60c0-8.401,6.599-15,15-15S391,98.599,391,107
		z"/>
</g>
<path style="fill:#0A4EAF;" d="M436,182c-8.291,0-15-6.709-15-15V77c0-8.291,6.709-15,15-15s15,6.709,15,15v90
	C451,175.291,444.291,182,436,182z"/>
<path style="fill:#1689FC;" d="M421,392c-49.501,0-91,40.499-91,90v15c0,8.401,6.599,15,15,15h152c8.401,0,15-6.599,15-15v-15
	C512,432.499,470.501,392,421,392z"/>
<path style="fill:#136EF1;" d="M512,482v15c0,8.401-6.599,15-15,15h-76V392C470.501,392,512,432.499,512,482z"/>
<path style="fill:#18A7FC;" d="M421,302c-32.999,0-60,27.001-60,60s27.001,60,60,60s61-27.001,61-60S453.999,302,421,302z"/>
<g>
	<path style="fill:#1689FC;" d="M482,362c0,32.999-28.001,60-61,60V302C453.999,302,482,329.001,482,362z"/>
	<path style="fill:#1689FC;" d="M90,392c-49.501,0-90,40.499-90,90v15c0,8.401,6.599,15,15,15h150c8.401,0,15-6.599,15-15v-15
		C180,432.499,139.501,392,90,392z"/>
</g>
<path style="fill:#136EF1;" d="M180,482v15c0,8.401-6.599,15-15,15H90V392C139.501,392,180,432.499,180,482z"/>
<path style="fill:#18A7FC;" d="M90,302c-32.999,0-60,27.001-60,60s27.001,60,60,60s60-27.001,60-60S122.999,302,90,302z"/>
<g>
	<path style="fill:#1689FC;" d="M150,362c0,32.999-27.001,60-60,60V302C122.999,302,150,329.001,150,362z"/>
	<path style="fill:#1689FC;" d="M345,482v30H165v-30c0-49.501,40.499-90,90-90S345,432.499,345,482z"/>
</g>
<path style="fill:#136EF1;" d="M345,482v30h-90V392C304.501,392,345,432.499,345,482z"/>
<path style="fill:#18A7FC;" d="M255,302c-32.999,0-60,27.001-60,60s27.001,60,60,60s60-27.001,60-60S287.999,302,255,302z"/>
<path style="fill:#1689FC;" d="M315,362c0,32.999-27.001,60-60,60V302C287.999,302,315,329.001,315,362z"/>
<path style="fill:#0A4EAF;" d="M391,107v60c0,8.399-6.599,15-15,15V92C384.401,92,391,98.599,391,107z"/>
<g>
</g>
<g>
</g>
<g>
</g>
<g>
</g>
<g>
</g>
<g>
</g>
<g>
</g>
<g>
</g>
<g>
</g>
<g>
</g>
<g>
</g>
<g>
</g>
<g>
</g>
<g>
</g>
<g>
</g>
</svg>
