<svg height="488pt" viewBox="0 0 488 488.15393" width="488pt" xmlns="http://www.w3.org/2000/svg"><path d="m244.277344 288.953125h136l84-284.800781h-440l84 284.800781zm0 0" fill="#ffea92"/><path d="m27.675781 19.753906c-1.796875 0-3.398437-1.199218-3.796875-2.800781l-3.402344-11.597656c-.597656-2.203125.601563-4.402344 2.800782-5 2.199218-.601563 4.398437.597656 5 2.796875l3.398437 11.601562c.601563 2.199219-.597656 4.398438-2.796875 5-.402344-.199218-.800781 0-1.203125 0zm0 0" fill="#3762cc"/><path d="m97.878906 257.753906c-1.800781 0-3.402344-1.199218-3.800781-2.800781l-7-23.800781c-.601563-2.199219.597656-4.398438 2.800781-5 2.199219-.597656 4.398438.601562 5 2.800781l7 23.800781c.597656 2.199219-.601562 4.398438-2.800781 5-.402344-.199218-.800781 0-1.199219 0zm-14-47.601562c-1.800781 0-3.402344-1.199219-3.800781-2.796875l-7-23.800781c-.601563-2.199219.597656-4.402344 2.800781-5 2.199219-.601563 4.398438.597656 5 2.800781l7 23.796875c.597656 2.203125-.601562 4.402344-2.800781 5-.402344-.199219-.800781 0-1.199219 0zm-14-47.597656c-1.800781 0-3.402344-1.199219-3.800781-2.800782l-7-23.800781c-.601563-2.199219.597656-4.398437 2.800781-5 2.199219-.597656 4.398438.601563 5 2.800781l7 23.800782c.597656 2.199218-.601562 4.398437-2.800781 5-.601563-.199219-1 0-1.199219 0zm-14.203125-47.601563c-1.796875 0-3.398437-1.199219-3.796875-2.800781l-7-24c-.601562-2.199219.597656-4.398438 2.796875-5 2.203125-.597656 4.402344.601562 5 2.800781l7 23.800781c.601563 2.199219-.597656 4.398438-2.796875 5-.402344 0-.800781.199219-1.203125.199219zm-14-47.597656c-1.796875 0-3.398437-1.203125-3.796875-2.800781l-7-23.800782c-.601562-2.199218.597656-4.398437 2.796875-5 2.203125-.601562 4.402344.601563 5 2.800782l6.800781 23.597656c.601563 2.203125-.597656 4.402344-2.800781 5-.199219 0-.597656.203125-1 .203125zm0 0" fill="#3762cc"/><path d="m120.277344 292.953125h-12c-1.800782 0-3.398438-1.199219-3.800782-2.800781l-3.398437-11.597656c-.601563-2.199219.597656-4.402344 2.800781-5 2.199219-.601563 4.398438.597656 5 2.800781l2.597656 8.597656h8.800782c2.199218 0 4 1.800781 4 4s-1.800782 4-4 4zm0 0" fill="#3762cc"/><path d="m345.878906 292.953125h-22.601562c-2.199219 0-4-1.800781-4-4s1.800781-4 4-4h22.601562c2.199219 0 4 1.800781 4 4s-1.800781 4-4 4zm-45.203125 0h-22.597656c-2.199219 0-4-1.800781-4-4s1.800781-4 4-4h22.597656c2.203125 0 4 1.800781 4 4s-1.796875 4-4 4zm-45 0h-22.597656c-2.199219 0-4-1.800781-4-4s1.800781-4 4-4h22.597656c2.203125 0 4 1.800781 4 4s-1.796875 4-4 4zm-45.199219 0h-22.597656c-2.203125 0-4-1.800781-4-4s1.796875-4 4-4h22.597656c2.199219 0 4 1.800781 4 4s-1.800781 4-4 4zm-45.199218 0h-22.398438c-2.203125 0-4-1.800781-4-4s1.796875-4 4-4h22.597656c2.199219 0 4 1.800781 4 4s-1.800781 4-4.199218 4zm0 0" fill="#3762cc"/><path d="m380.277344 292.953125h-12c-2.199219 0-4-1.800781-4-4s1.800781-4 4-4h9l2.601562-8.597656c.597656-2.203125 2.796875-3.402344 5-2.800781 2.199219.597656 3.398438 2.800781 2.796875 5l-3.398437 11.597656c-.601563 1.601562-2.199219 2.800781-4 2.800781zm0 0" fill="#3762cc"/><path d="m390.675781 257.753906c-.398437 0-.796875 0-1.199219-.199218-2.199218-.601563-3.398437-2.800782-2.800781-5l7-23.800782c.601563-2.199218 2.800781-3.398437 5-2.800781 2.203125.601563 3.402344 2.800781 2.800781 5l-7 23.800781c-.398437 1.800782-2 3-3.800781 3zm14.203125-47.601562c-.402344 0-.800781 0-1.203125-.199219-2.199219-.597656-3.398437-2.800781-2.796875-5l7-23.800781c.597656-2.199219 2.796875-3.398438 5-2.796875 2.199219.597656 3.398438 2.796875 2.796875 5l-7 23.796875c-.597656 1.800781-2.199219 3-3.796875 3zm14-47.597656c-.402344 0-.800781 0-1.203125-.199219-2.199219-.601563-3.398437-2.800781-2.796875-5l7-23.800781c.597656-2.199219 2.796875-3.402344 5-2.800782 2.199219.601563 3.398438 2.800782 2.796875 5l-7 23.800782c-.597656 1.800781-2.199219 3-3.796875 3zm14-47.601563c-.402344 0-.800781 0-1.203125-.199219-2.199219-.601562-3.398437-2.800781-2.796875-5l7-23.800781c.597656-2.199219 2.796875-3.398437 5-2.800781 2.199219.601562 3.398438 2.800781 2.796875 5l-7 23.800781c-.398437 1.800781-2 3-3.796875 3zm14-47.597656c-.402344 0-.800781 0-1.203125-.203125-2.199219-.597656-3.398437-2.796875-2.796875-5l7-23.796875c.597656-2.203125 2.796875-3.402344 5-2.800781 2.199219.597656 3.398438 2.800781 2.796875 5l-7 23.800781c-.398437 1.796875-2 3-3.796875 3zm0 0" fill="#3762cc"/><path d="m460.878906 19.753906c-.402344 0-.800781 0-1.203125-.199218-2.199219-.601563-3.398437-2.800782-2.796875-5l3.398438-11.601563c.601562-2.199219 2.800781-3.398437 5-2.800781 2.199218.601562 3.398437 2.800781 2.800781 5l-3.402344 11.601562c-.398437 1.800782-2 3-3.796875 3zm0 0" fill="#3762cc"/><path d="m343.675781 130.554688h-172c-4.199219 0-7.597656-3.402344-7.597656-7.601563v-111.199219c0-4.199218 3.398437-7.601562 7.597656-7.601562h172c4.203125 0 7.601563 3.402344 7.601563 7.601562v111c0 4.398438-3.398438 7.800782-7.601563 7.800782zm0 0" fill="#f9a7a7"/><path d="m176.476562 115.355469v-96c0-1.402344 1.199219-2.601563 2.601563-2.601563h157c1.398437 0 2.597656 1.199219 2.597656 2.601563v96c0 1.398437-1.199219 2.597656-2.597656 2.597656h-157c-1.402344 0-2.601563-1.199219-2.601563-2.597656zm0 0" fill="#6bdddd"/><path d="m214.675781 45.953125h-8.398437c-.398438 0-.601563.402344-.601563.601563v6c0 .398437.402344.597656.601563.597656h7.199218c.402344 0 .601563.402344.601563.601562v2c0 .398438-.402344.601563-.601563.601563h-7.199218c-.398438 0-.601563.398437-.601563.597656v6.199219c0 .402344.402344.601562.601563.601562h8.398437c.402344 0 .601563.398438.601563.601563v2c0 .398437-.398438.597656-.601563.597656h-12.398437c-.398438 0-.601563-.398437-.601563-.597656v-23.203125c0-.398438.402344-.597656.601563-.597656h12.398437c.402344 0 .601563.398437.601563.597656v2c0 .402344-.199219.800781-.601563.800781zm0 0" fill="#e0ebfc"/><path d="m224.277344 48.753906h17.800781c.398437 0 .597656.398438.597656.601563v2c0 .398437-.398437.597656-.597656.597656h-17.800781c-.398438 0-.601563-.398437-.601563-.597656v-2c0-.203125.203125-.601563.601563-.601563zm0 8.199219h17.800781c.398437 0 .597656.402344.597656.601563v2c0 .398437-.398437.597656-.597656.597656h-17.800781c-.398438 0-.601563-.398438-.601563-.597656v-2c0-.402344.203125-.601563.601563-.601563zm0 0" fill="#e0ebfc"/><path d="m279.476562 56.554688c0-3.601563-2-5.402344-5-5.402344s-5 1.800781-5 5.402344v10.398437c0 .402344-.398437.601563-.597656.601563h-2.800781c-.402344 0-.601563-.402344-.601563-.601563v-10.398437c0-3.601563-2-5.402344-5-5.402344s-5 1.800781-5 5.402344v10.398437c0 .402344-.398437.601563-.597656.601563h-2.800781c-.402344 0-.601563-.402344-.601563-.601563v-18.398437c0-.402344.402344-.601563.601563-.601563h2.800781c.398438 0 .597656.402344.597656.601563 0 .597656.601563.800781 1 .597656 1.199219-1 3-1.597656 4.800782-1.597656 2.800781 0 5 1 6.601562 3 .199219.398437.796875.398437 1.199219 0 1.398437-1.800782 3.800781-3 6.398437-3 4.601563 0 8.199219 3 8.199219 8.398437v11c0 .402344-.398437.601563-.597656.601563h-2.800781c-.398438 0-.601563-.402344-.601563-.601563zm0 0" fill="#e0ebfc"/><path d="m298.675781 47.355469c4.402344 0 7.601563 2 8.800781 5.597656.199219.402344-.199218 1-.597656 1h-3c-.203125 0-.601562-.199219-.601562-.398437-.800782-1.601563-2.199219-2.800782-4.601563-2.800782-3.398437 0-5.398437 2.398438-5.398437 6.800782 0 4.398437 2.199218 6.800781 5.398437 6.800781 2.203125 0 3.800781-1 4.601563-2.800781.199218-.199219.398437-.402344.601562-.402344h3c.398438 0 .796875.402344.597656 1-1.398437 3.402344-4.398437 5.601562-8.800781 5.601562-5.597656 0-9.796875-4-9.796875-10.199218.199219-6 4.199219-10.199219 9.796875-10.199219zm0 0" fill="#e0ebfc"/><path d="m311.476562 52.554688c0-.199219 0-.402344.199219-.601563 3.203125-2.800781 6.601563-5.398437 6.601563-8.199219 0-1.398437-.601563-2.398437-2.398438-2.398437-1.402344 0-2.203125.796875-2.402344 2.199219 0 .398437-.398437.597656-.597656.597656h-.800781c-.402344 0-.800781-.398438-.601563-.796875.402344-2.601563 2.199219-3.800781 4.601563-3.800781 2.800781 0 4.597656 1.800781 4.597656 4.199218 0 2.800782-2.398437 5.199219-4.398437 7-.398438.398438-.199219 1.199219.398437 1.199219h3.800781c.402344 0 .601563.402344.601563.601563v.398437c0 .402344-.402344.601563-.601563.601563h-8.199218c-.398438 0-.601563-.402344-.601563-.601563zm0 0" fill="#e0ebfc"/><path d="m204.675781 151.554688h-44c-6.597656 0-12 5.398437-12 12v54.800781h67.601563v-54.800781c.199218-6.601563-5-12-11.601563-12zm0 0" fill="#a4c9ff"/><path d="m158.078125 151.953125c-1.402344.199219-3 .601563-4.199219 1-1.402344.402344-2.800781 1-4 1.800781-1.203125.601563-2.402344 1.398438-3.601562 2.398438-5.601563 4.402344-9.199219 11.402344-9.199219 19v42.203125h11.398437v-17.601563h.199219v-37.199218c0-.800782 0-1.402344.203125-2 .398438-2 1.199219-3.800782 2.398438-5.402344 1.800781-2.199219 4.199218-3.796875 6.800781-4.199219zm0 0" fill="#a4c9ff"/><path d="m258.675781 157.152344-9.199219-6.199219c-3.597656-2.398437-4.597656-7.398437-2.199218-11l8-12c1.398437-2 4.199218-2.597656 6.199218-1.199219l14.800782 10c2 1.398438 2.601562 4.199219 1.199218 6.199219l-8 12c-2.199218 3.601563-7.199218 4.601563-10.800781 2.199219zm0 0" fill="#f9cfcf"/><path d="m258.675781 154.953125c-1.199219-.800781-1.796875-2.398437-1-3.800781l34.800781-58.597656c.800782-1.199219 2.402344-1.800782 3.800782-1 1.199218.800781 1.800781 2.398437 1 3.800781l-34.800782 58.597656c-.800781 1.199219-2.597656 1.601563-3.800781 1zm0 0" fill="#e0ebfc"/><path d="m258.078125 132.554688 8.199219-1 2 17.597656c0 .800781-.398438 1.402344-1.199219 1.402344-3.800781.398437-7.402344-2.402344-7.800781-6.199219zm0 0" fill="#f9cfcf"/><path d="m210.675781 108.753906-.199219-2.800781c0-16.199219-13.199218-29.398437-29.398437-29.398437s-29.402344 13.199218-29.402344 29.398437v2.800781h-.199219c-5 0-9 4-9 9 0 2.199219 1 4.398438 2.601563 5.800782 2.800781 2.800781 5.199219 3.199218 7.398437 3 3 13 14.800782 22.800781 28.601563 22.800781s25.597656-9.800781 28.597656-22.800781c2.203125.199218 4.601563-.199219 7.601563-3.199219 1.601562-1.601563 2.398437-3.601563 2.398437-5.800781 0-4.800782-4-8.800782-9-8.800782zm0 0" fill="#f9cfcf"/><path d="m264.878906 159.554688-19.402344-12.800782c-1.199218-.800781-2.800781-.398437-3.398437.601563l-11 16.398437c-.800781 1.199219-2.601563 1.601563-3.800781.800782l-16-10.601563c2.800781 2.199219 4.800781 5.601563 4.800781 9.601563v27.398437l7.800781 5.199219c7.398438 5 17.597656 3 22.597656-4.597656l19-28.601563c.800782-1 .601563-2.597656-.597656-3.398437zm0 0" fill="#a4c9ff"/><g fill="#4671c6"><path d="m165.476562 121.753906c-1.800781 0-3.398437-1.398437-3.398437-3.398437v-5.601563c0-1.800781 1.398437-3.398437 3.398437-3.398437s3.402344 1.398437 3.402344 3.398437v5.601563c0 2-1.601562 3.398437-3.402344 3.398437zm0 0"/><path d="m196.675781 121.753906c-1.796875 0-3.398437-1.398437-3.398437-3.398437v-5.601563c0-1.800781 1.398437-3.398437 3.398437-3.398437s3.402344 1.398437 3.402344 3.398437v5.601563c-.199219 2-1.601563 3.398437-3.402344 3.398437zm0 0"/><path d="m165.476562 121.753906c-1.800781 0-3.398437-1.398437-3.398437-3.398437v-5.601563c0-1.800781 1.398437-3.398437 3.398437-3.398437s3.402344 1.398437 3.402344 3.398437v5.601563c0 2-1.601562 3.398437-3.402344 3.398437zm0 0"/><path d="m196.675781 121.753906c-1.796875 0-3.398437-1.398437-3.398437-3.398437v-5.601563c0-1.800781 1.398437-3.398437 3.398437-3.398437s3.402344 1.398437 3.402344 3.398437v5.601563c-.199219 2-1.601563 3.398437-3.402344 3.398437zm0 0"/><path d="m210.078125 101.554688c.199219 1.398437.398437 3 .398437 4.597656v2.800781h.199219c1.800781 0 3.402344.601563 4.800781 1.402344v-8.800781zm0 0"/><path d="m146.675781 101.554688v8.597656c1.402344-.796875 3-1.398438 4.800781-1.398438h.199219v-2.800781c0-1.597656.203125-3 .402344-4.597656zm0 0"/><path d="m202.878906 101.554688h15.597656c1.199219 0 2-1 2-2v-11.800782c0-13.199218-10.800781-24-24-24h-.800781c-3.398437 0-6.199219 2.800782-6.199219 6.199219v18.199219c0 7.402344 6 13.402344 13.402344 13.402344zm0 0"/><path d="m170.878906 101.554688h-27.203125c-1.199219 0-2-1-2-2v-9.800782c0-14.398437 11.601563-26 26-26h15.601563c3.398437 0 6.199218 2.800782 6.199218 6.199219v13c.199219 10.199219-8.199218 18.402344-18.597656 18.601563zm0 0"/></g><path d="m181.078125 149.554688c-5.402344 0-10.199219-1.402344-14.601563-3.800782v12c0 2.199219 1.402344 4 3.199219 4h22.601563c1.800781 0 3.199218-1.800781 3.199218-4v-12c-4.199218 2.398438-9 3.800782-14.398437 3.800782zm0 0" fill="#f9cfcf"/><path d="m186.277344 129.953125h-10.398438c-.601562 0-1 .402344-1 1v2.601563c0 1 .398438 1.800781 1.199219 2.597656.800781.800781 2.199219 1.402344 3.597656 1.601562h2.800781c1.402344-.199218 2.800782-.800781 3.601563-1.601562.800781-.796875 1.199219-1.597656 1.199219-2.597656v-2.601563c0-.398437-.398438-1-1-1zm0 0" fill="#f9a7a7"/><path d="m347.675781 207.953125h-121c-2 0-3.597656-1.597656-3.597656-3.597656v-14.203125c0-2 1.597656-3.597656 3.597656-3.597656h121c2 0 3.601563 1.597656 3.601563 3.597656v14.203125c0 2-1.601563 3.597656-3.601563 3.597656zm0 0" fill="#f9a7a7"/><path d="m233.878906 207.953125h106.597656v10.402344h-106.597656zm0 0" fill="#f9cfcf"/><path d="m272.878906 168.753906h72.796875c1 0 2 .800782 2 2v14c0 1-.796875 2-2 2h-72.796875c-1 0-2-.800781-2-2v-14c0-1.199218.796875-2 2-2zm0 0" fill="#6bdddd"/><path d="m342.675781 186.554688h-5.398437v-17.800782h5.398437zm0 0" fill="#ffea92"/><path d="m283.078125 174.953125h46.199219c.800781 0 1.601562.800781 1.601562 1.601563v2.199218c0 .800782-.800781 1.601563-1.601562 1.601563h-46.199219c-.800781 0-1.601563-.800781-1.601563-1.601563v-2.199218c0-1 .800782-1.601563 1.601563-1.601563zm0 0" fill="#e0ebfc"/><path d="m286.878906 151.355469c-3 0-5.402344 3-5.402344 6.597656 0 3.601563 2.402344 6.601563 5.402344 6.601563h52.199219v-13.402344zm0 0" fill="#e0ebfc"/><path d="m288.078125 168.953125c-.199219 0-.402344 0-.800781 0h-1c-5 0-9-5-9-11s4-11 9-11h54.398437c1.402344 0 2.402344 1.199219 2.402344 2.601563 0 1.398437-1 2.597656-2.402344 2.597656h-53.796875c-2.601562 0-4.601562 2.601562-4.601562 5.601562s2 5.601563 4.601562 5.601563h53.796875c1.402344 0 2.402344 1.199219 2.402344 2.597656 0 1.402344-1 2.601563-2.402344 2.601563zm0 0" fill="#4671c6"/><path d="m288.078125 155.953125v18.199219c0 .601562.597656.800781 1 .402344l3.800781-4.402344c.199219-.199219.597656-.199219.796875 0l4 4.402344c.402344.398437 1 .199218 1-.402344v-18.199219zm0 0" fill="#f9a7a7"/><path d="m365.078125 412.753906h-241.601563c-7 0-12.800781-5.800781-12.800781-12.800781v-155.800781c0-7 5.800781-12.796875 12.800781-12.796875h241.402344c7 0 12.796875 5.796875 12.796875 12.796875v155.800781c.203125 7-5.597656 12.800781-12.597656 12.800781zm0 0" fill="#a4c9ff"/><path d="m126.878906 389.953125v-136.398437c0-4 3.199219-7.199219 7.199219-7.199219h220.199219c4 0 7.199218 3.199219 7.199218 7.199219v136.398437c0 4-3.199218 7.199219-7.199218 7.199219h-220c-4 0-7.398438-3.199219-7.398438-7.199219zm0 0" fill="#f9a7a7"/><path d="m371.476562 414.152344c-2-.796875-4.199218-1.199219-6.597656-1.199219h-241.402344c-2.199218 0-4.597656.402344-6.597656 1.199219l-19 8.203125h292.597656zm0 0" fill="#e0ebfc"/><path d="m389.878906 446.152344h-291.203125c-3.199219 0-5.597656-2.597656-5.597656-5.597656v-12.601563c0-3.199219 2.597656-5.597656 5.597656-5.597656h291c3.203125 0 5.601563 2.597656 5.601563 5.597656v12.601563c.199218 3.199218-2.398438 5.597656-5.398438 5.597656zm0 0" fill="#a4c9ff"/><path d="m244.277344 422.152344h-29l4.199218 7.402344c.601563.800781 1.199219 1.398437 2 1.398437h45.601563c.800781 0 1.398437-.398437 2-1.398437l4.199219-7.402344zm0 0" fill="#e0ebfc"/><path d="m365.078125 416.753906h-241.601563c-9.199218 0-16.800781-7.601562-16.800781-16.800781v-155.800781c0-9.199219 7.601563-16.796875 16.800781-16.796875h241.402344c9.199219 0 16.796875 7.597656 16.796875 16.796875v155.800781c.203125 9.199219-7.398437 16.800781-16.597656 16.800781zm-241.601563-181.398437c-4.800781 0-8.800781 4-8.800781 8.796875v155.800781c0 4.800781 4 8.800781 8.800781 8.800781h241.402344c4.796875 0 8.796875-4 8.796875-8.800781v-155.800781c0-4.796875-4-8.796875-8.796875-8.796875zm0 0" fill="#3762cc"/><path d="m389.878906 450.152344h-291.203125c-5.398437 0-9.597656-4.398438-9.597656-9.597656v-12.601563c0-4.597656 3.398437-8.597656 7.800781-9.597656l18.597656-8c2.402344-1 5.199219-1.601563 8-1.601563h241.402344c2.796875 0 5.597656.601563 8 1.601563l18.597656 8c4.402344.796875 7.800782 4.796875 7.800782 9.597656v12.601563c.199218 5.398437-4.199219 9.597656-9.398438 9.597656zm-291.203125-24c-1 0-1.597656.800781-1.597656 1.601562v12.601563c0 1 .800781 1.597656 1.597656 1.597656h291c1 0 1.601563-.800781 1.601563-1.597656v-12.601563c0-1-.800782-1.601562-1.601563-1.601562-1 0-2-.398438-2.796875-1.199219l-17-7.398437c-1.402344-.601563-3.203125-1-5-1h-241.402344c-1.800781 0-3.398437.398437-5 1l-17 7.398437c-.597656.800781-1.597656 1.199219-2.800781 1.199219zm0 0" fill="#3762cc"/><path d="m278.277344 229.152344c0 18.777344-15.222656 34-34 34s-34-15.222656-34-34 15.222656-34 34-34 34 15.222656 34 34zm0 0" fill="#e0ebfc"/><path d="m265.675781 229.152344c0 11.820312-9.578125 21.402344-21.398437 21.402344-11.820313 0-21.398438-9.582032-21.398438-21.402344 0-11.816406 9.578125-21.398438 21.398438-21.398438 11.820312 0 21.398437 9.582032 21.398437 21.398438zm0 0" fill="#a4c9ff"/><path d="m254.277344 229.152344c0 5.523437-4.476563 10-10 10-5.523438 0-10-4.476563-10-10 0-5.519532 4.476562-10 10-10 5.523437 0 10 4.480468 10 10zm0 0" fill="#4671c6"/><path d="m244.277344 267.152344c-21 0-38-17-38-38s17-38 38-38 38 17 38 38-17 38-38 38zm0-68c-16.601563 0-30 13.402344-30 30 0 16.601562 13.398437 30 30 30 16.601562 0 30-13.398438 30-30 0-16.597656-13.398438-30-30-30zm0 0" fill="#3762cc"/><path d="m247.476562 202.554688c0 1.765624-1.433593 3.199218-3.199218 3.199218-1.769532 0-3.199219-1.433594-3.199219-3.199218 0-1.769532 1.429687-3.199219 3.199219-3.199219 1.765625 0 3.199218 1.429687 3.199218 3.199219zm0 0" fill="#f9a7a7"/><path d="m105.675781 432.953125h-64.796875c-14.800781 0-26.800781 12-26.800781 26.800781v24.199219h118.398437v-24.199219c0-14.800781-12-26.800781-26.800781-26.800781zm0 0" fill="#e0ebfc"/><path d="m73.277344 426.753906c-8.601563 0-16.800782-2-23.800782-5.601562v11c0 .402344 0 .800781.199219 1.203125 0 .398437.203125.796875.402344 1v.199219c0 .199218.199219.199218.199219.398437s.199218.199219.199218.402344c0 0 0 .199219.199219.199219l3.402344 4.398437c3.398437 4.199219 8 7.402344 13.398437 8.601563.800782.199218 1.402344.398437 2.199219.398437 8.601563 1.199219 17.203125-2.398437 22.601563-9.199219l5-6.398437c0-.402344.199218-.601563.199218-1v-10.800781c-7.398437 3.199218-15.597656 5.199218-24.199218 5.199218zm0 0" fill="#f9cfcf"/><path d="m126.277344 354.753906c-.199219 0-.199219 0-.398438 0v-5c0-28.800781-23.601562-52.199218-52.601562-52.199218s-52.601563 23.398437-52.601563 52.199218v5c-.199219 0-.199219 0-.398437 0-8.800782 0-16 7.199219-16 16 0 8.800782 7.199218 16 16 16h1.800781c5.398437 23 26.398437 40.199219 51.199219 40.199219 24.800781 0 45.800781-17.199219 51.199218-40.199219h1.800782c8.800781 0 16-7.199218 16-16 0-8.800781-7.199219-16-16-16zm0 0" fill="#f9cfcf"/><path d="m73.277344 430.753906c-25.398438 0-47.199219-16.398437-54.398438-40.199218-10.402344-.601563-18.800781-9.402344-18.800781-19.800782 0-9.800781 7-17.800781 16.398437-19.601562v-1.199219c0-31 25.402344-56.199219 56.601563-56.199219s56.597656 25.199219 56.597656 56.199219v1.199219c9.402344 1.800781 16.402344 9.800781 16.402344 19.601562 0 10.601563-8.199219 19.199219-18.800781 19.800782-6.800782 23.800781-28.601563 40.199218-54 40.199218zm-51.199219-48.199218c1.800781 0 3.398437 1.199218 3.800781 3 5.199219 21.800781 24.597656 37.199218 47.398438 37.199218 22.800781 0 42.199218-15.199218 47.398437-37.199218.402344-2 2.402344-3.199219 4.402344-3h1.199219c6.601562 0 12-5.402344 12-12 0-6.601563-5.398438-11.800782-12-12-.199219 0-.398438 0-.398438 0-1 0-2-.402344-2.800781-1.199219-.800781-.800781-1.199219-1.800781-1.199219-2.800781v-5c0-26.601563-21.800781-48.199219-48.601562-48.199219-26.800782 0-48.601563 21.597656-48.601563 48.199219v5c0 1-.398437 2.199218-1.199219 2.800781-.800781.597656-1.800781 1.199219-2.800781 1.199219 0 0-.199219 0-.398437 0-6.601563 0-12 5.398437-12 12 0 6.597656 5.398437 12 12 12h1.199218zm0 0" fill="#3762cc"/><path d="m132.476562 488.152344h-118.398437c-2.199219 0-4-1.796875-4-4v-24.398438c0-17 13.800781-30.800781 30.800781-30.800781h4.398438v-7.800781c0-1.398438.800781-2.597656 2-3.398438 1.199218-.800781 2.601562-.800781 4-.199218 6.800781 3.398437 14.398437 5.199218 22 5.199218 7.800781 0 15.199218-1.800781 22-5.199218 1.199218-.601563 2.800781-.601563 4 .199218 1.199218.800782 2 2 2 3.398438v7.800781h4.398437c17 0 30.800781 13.800781 30.800781 30.800781v24.398438c0 2.203125-1.800781 4-4 4zm-114.398437-8h110.398437v-20.398438c0-12.601562-10.199218-22.800781-22.800781-22.800781h-8.597656c-1.199219 0-2.402344-.597656-3-1.398437-.601563-.800782-1-2.199219-.800781-3.402344v-.199219-4.597656c-6.398438 2.398437-13 3.597656-19.800782 3.597656-6.800781 0-13.597656-1.199219-19.800781-3.597656v4.796875.203125c.203125 1.199219 0 2.398437-.796875 3.398437-.800781 1-1.800781 1.398438-3 1.398438h-8.601562c-12.601563 0-22.800782 10.203125-22.800782 22.800781zm0 0" fill="#3762cc"/><path d="m137.476562 321.152344c0-23.199219-18.800781-42-42-42h-30.597656c-7.402344 0-13.601562 4.203125-16.800781 10.203125-2.199219-2.402344-5.402344-4-9-4h-4.402344c-15.199219 0-27.597656 12.398437-27.597656 27.597656v28.402344c0 2 1 4 2.597656 5.199219v15.597656c0 24.800781 20 44.800781 44.800781 44.800781h35.601563c24.800781 0 44.800781-20 44.800781-44.800781v-26.597656c1.597656-3.199219 2.597656-6.601563 2.597656-10.402344zm0 0" fill="#4671c6"/><path d="m90.078125 410.953125h-35.601563c-27 0-48.800781-22-48.800781-48.800781v-14c-1.597656-1.796875-2.597656-4.199219-2.597656-6.796875v-28.402344c0-17.398437 14.199219-31.597656 31.597656-31.597656h4.402344c2.800781 0 5.597656.796875 8 2.199219 4.398437-5.199219 10.800781-8.402344 17.800781-8.402344h30.796875c25.402344 0 46 20.601562 46 46v4c0 4-.796875 7.800781-2.597656 11.203125v25.796875c0 26.800781-22 48.800781-49 48.800781zm-55.402344-121.597656c-13 0-23.597656 10.597656-23.597656 23.597656v28.402344c0 1 .597656 1.796875 1 2 1 .796875 1.597656 2 1.597656 3.199219v15.597656c0 22.601562 18.402344 40.800781 40.800781 40.800781h35.601563c22.597656 0 40.800781-18.398437 40.800781-40.800781v-26.597656c0-.601563.199219-1.199219.398438-1.800782 1.398437-2.601562 2-5.601562 2-8.601562v-4c0-21-17-38-38-38h-30.398438c-5.601562 0-10.601562 3-13.203125 8-.597656 1.203125-1.796875 2-3 2.203125-1.199219.199219-2.597656-.203125-3.398437-1.203125-1.601563-1.597656-3.800782-2.597656-6-2.597656zm0 0" fill="#3762cc"/><path d="m447.675781 432.953125h-64.796875c-14.800781 0-26.800781 12-26.800781 26.800781v24.199219h118.398437v-24.199219c0-14.800781-12-26.800781-26.800781-26.800781zm0 0" fill="#a4c9ff"/><path d="m415.277344 426.753906c-8.601563 0-16.800782-2-23.800782-5.601562v11c0 .402344 0 .800781.199219 1.203125 0 .398437.203125.796875.402344 1v.199219c0 .199218.199219.199218.199219.398437s.199218.199219.199218.402344c0 0 0 .199219.199219.199219l3.402344 4.398437c3.398437 4.199219 8 7.402344 13.398437 8.601563.800782.199218 1.402344.398437 2.199219.398437 8.601563 1.199219 17.203125-2.398437 22.601563-9.199219l5-6.398437c0-.402344.199218-.601563.199218-1v-10.800781c-7.597656 3.199218-15.597656 5.199218-24.199218 5.199218zm0 0" fill="#f9cfcf"/><path d="m468.277344 354.753906c-.199219 0-.199219 0-.398438 0v-5c0-28.800781-23.601562-52.199218-52.601562-52.199218s-52.601563 23.398437-52.601563 52.199218v5c-.199219 0-.199219 0-.398437 0-8.800782 0-16 7.199219-16 16 0 8.800782 7.199218 16 16 16h1.800781c5.398437 23 26.398437 40.199219 51.199219 40.199219 25 0 45.800781-17.199219 51.199218-40.199219h1.800782c8.800781 0 16-7.199218 16-16 0-8.800781-7.199219-16-16-16zm0 0" fill="#f9cfcf"/><path d="m415.277344 430.753906c-25.398438 0-47.199219-16.398437-54.398438-40.199218-10.402344-.601563-18.800781-9.402344-18.800781-19.800782 0-9.800781 7-17.800781 16.398437-19.601562v-1.199219c0-31 25.402344-56.199219 56.601563-56.199219s56.597656 25.199219 56.597656 56.199219v1.199219c9.402344 1.800781 16.402344 9.800781 16.402344 19.601562 0 10.601563-8.199219 19.199219-18.800781 19.800782-6.800782 23.800781-28.601563 40.199218-54 40.199218zm-51.199219-48.199218c1.800781 0 3.398437 1.199218 3.800781 3 5.199219 21.800781 24.597656 37.199218 47.398438 37.199218 22.800781 0 42.199218-15.199218 47.398437-37.199218.402344-2 2.402344-3.199219 4.402344-3h1.199219c6.601562 0 12-5.402344 12-12 0-6.601563-5.398438-11.800782-12-12-.199219 0-.398438 0-.398438 0-1 0-2-.402344-2.800781-1.199219-.800781-.800781-1.199219-1.800781-1.199219-2.800781v-5c0-26.601563-21.800781-48.199219-48.601562-48.199219-26.800782 0-48.601563 21.597656-48.601563 48.199219v5c0 1-.398437 2.199218-1.199219 2.800781-.800781.796875-1.800781 1.199219-2.800781 1.199219h-.398437c-6.601563 0-12 5.398437-12 12 0 6.597656 5.398437 12 12 12h1.199218zm0 0" fill="#3762cc"/><path d="m474.476562 488.152344h-118.398437c-2.199219 0-4-1.796875-4-4v-24.398438c0-17 13.800781-30.800781 30.800781-30.800781h4.398438v-7.800781c0-1.398438.800781-2.597656 2-3.398438 1.199218-.800781 2.601562-.800781 4-.199218 6.800781 3.398437 14.398437 5.199218 22 5.199218 7.800781 0 15.199218-1.800781 22-5.199218 1.199218-.601563 2.800781-.601563 3.800781.199218 1.199219.800782 2 2 2 3.398438v7.800781h4.398437c17 0 30.800782 13.800781 30.800782 30.800781v24.398438c.199218 2.203125-1.601563 4-3.800782 4zm-114.398437-8h110.398437v-20.398438c0-12.601562-10.199218-22.800781-22.800781-22.800781h-8.597656c-1.199219 0-2.402344-.597656-3.199219-1.398437-.800781-1-1-2.199219-.800781-3.402344v-.199219-4.597656c-6.402344 2.398437-13 3.597656-19.800781 3.597656-6.800782 0-13.601563-1.199219-19.800782-3.597656v4.796875.203125c.199219 1.199219 0 2.398437-.800781 3.398437-.796875 1-1.796875 1.398438-3 1.398438h-8.597656c-12.601563 0-22.800781 10.203125-22.800781 22.800781zm0 0" fill="#3762cc"/><path d="m476.675781 279.152344h-69.199219c-5.398437 0-10.199218 2.203125-13.800781 5.800781-1.597656 1.601563-4 2-6.199219 1.199219-1.398437-.398438-2.800781-.796875-4.398437-.796875h-5.402344c-15.597656 0-28 12.597656-28 28v38c0 4.597656.601563 9.199219 1.601563 13.597656.601562 2.402344 1.398437 4.800781 2.199218 7 1.199219 3.199219 2.800782 6.199219 4.402344 9l4 8c5.398438 11 16.796875 17.800781 29 17.800781h47.199219c12.199219 0 23.398437-7 29-17.800781l3-6c3.800781-5.398437 6.398437-11.597656 8.199219-18.199219 1-4.398437 1.601562-8.800781 1.601562-13.601562v-68.796875c.398438-1.601563-1.402344-3.203125-3.203125-3.203125zm0 0" fill="#4671c6"/><path d="m438.476562 410.953125h-47.199218c-13.800782 0-26.398438-7.800781-32.601563-20l-4-8c-1.796875-3-3.398437-6.199219-4.597656-9.398437 0 0 0 0 0-.199219-1-2.402344-1.800781-5-2.402344-7.402344-1.199219-4.800781-1.796875-9.597656-1.796875-14.398437v-37.800782c0-17.601562 14.398438-32 32-32h5.398438c2 0 3.800781.398438 5.601562 1 .597656.199219 1.398438.199219 1.796875-.199218 4.402344-4.601563 10.203125-7.199219 16.601563-7.199219h69.199218c4.199219 0 7.601563 3.398437 7.601563 7.597656v68.601563c0 4.800781-.601563 9.597656-1.800781 14.199218 0 .199219 0 .199219-.199219.398438-1.601563 6.800781-4.601563 13.203125-8.402344 19l-2.796875 5.800781c-6.203125 12.199219-18.601562 20-32.402344 20zm-81-40.398437c1.199219 3 2.601563 5.800781 4.199219 8.398437 0 .199219.203125.199219.203125.402344l4 8c4.796875 9.597656 14.597656 15.597656 25.398438 15.597656h47.199218c10.800782 0 20.601563-6 25.402344-15.597656l3-6c0-.203125.199219-.402344.199219-.402344 3.597656-5.199219 6-10.800781 7.597656-16.800781 1-4.199219 1.601563-8.398438 1.601563-12.597656v-68.199219h-68.800782c-4.199218 0-8 1.597656-10.800781 4.597656-2.597656 2.800781-6.597656 3.601563-10.398437 2.199219-1-.398438-2-.597656-3-.597656h-5.398438c-13.203125 0-24 10.800781-24 24v37.800781c0 4.199219.597656 8.398437 1.597656 12.597656.402344 2.199219 1 4.402344 2 6.601563-.199218-.199219-.199218 0 0 0zm119.199219-87.402344" fill="#3762cc"/><path d="m318.878906 398.554688-14.601562-63.402344c.800781-2.199219 1.199218-4.597656 1.199218-7v-3.398438c0-22.601562-18.398437-40.800781-40.800781-40.800781h-30.796875c-8 0-14.800781 5.199219-17.402344 12.402344-1.800781-3.800781-5.800781-6.203125-10.199218-6.203125h-3c-14.199219 0-25.800782 11.601562-25.800782 25.800781v28.402344c0 1.398437.402344 2.597656 1.199219 3.796875l-11.597656 50.800781c-.402344 1.601563-.601563 3.402344-.601563 5.199219 0 12.203125 9.402344 22.203125 21.199219 22.203125h110.601563c11.800781 0 21.199218-10 21.199218-22.203125 0-2.199219-.199218-4-.597656-5.597656zm0 0" fill="#4671c6"/><path d="m274.878906 432.953125h-64.800781c-14.800781 0-26.800781 12-26.800781 26.800781v24.199219h118.398437v-24.199219c0-14.800781-12-26.800781-26.796875-26.800781zm0 0" fill="#b9befc"/><path d="m298.277344 429.753906h-110.601563c-13.796875 0-25.199219-11.800781-25.199219-26.199218 0-2 .199219-4 .601563-6l11.199219-49.199219c-.601563-1.402344-1-2.800781-1-4.402344v-28.398437c0-16.402344 13.398437-29.800782 29.800781-29.800782h3c3.398437 0 6.800781 1.199219 9.398437 3.199219 4.199219-5.800781 10.800782-9.199219 18.199219-9.199219h30.800781c24.800782 0 44.800782 20.199219 44.800782 44.800782v3.398437c0 2.402344-.398438 4.800781-1 7.199219l14.199218 62.402344c.402344 2 .601563 4 .601563 6 .398437 14.597656-11 26.199218-24.800781 26.199218zm-95-135.800781c-12 0-21.800782 9.800781-21.800782 21.800781v28.398438c0 .402344.199219.800781.402344 1.203125.796875 1 1 2.199219.796875 3.398437l-11.597656 50.800782c-.402344 1.398437-.402344 2.800781-.402344 4.199218 0 10 7.800781 18.199219 17.203125 18.199219h110.398438c9.398437 0 17.199218-8.199219 17.199218-18.199219 0-1.398437-.199218-2.800781-.398437-4.199218l-14.601563-63.402344c-.199218-.796875-.199218-1.398438.199219-2.199219.601563-1.800781 1-3.800781 1-5.800781v-3.398438c0-20.398437-16.597656-36.800781-36.796875-36.800781h-30.800781c-6.199219 0-11.601563 3.800781-13.601563 9.601563-.597656 1.597656-2 2.597656-3.597656 2.597656-1.601562.203125-3-.796875-3.800781-2.199219-1.199219-2.597656-3.800781-4-6.601563-4zm0 0" fill="#3762cc"/><path d="m252.277344 425.753906c-3.199219.601563-6.398438 1-9.800782 1-3.398437 0-6.597656-.398437-9.800781-1h-14v6.199219c0 .402344 0 .800781.203125 1.199219 0 .402344.199219.800781.398438 1v.203125c0 .199219.199218.199219.199218.398437 0 .199219.199219.199219.199219.398438 0 0 0 .203125.203125.203125l3.398438 4.398437c3.398437 4.199219 8 7.398438 13.398437 8.601563.800781.199219 1.402344.398437 2.203125.398437 8.597656 1.199219 17.199219-2.398437 22.597656-9.199218l5-6.402344c0-.398438.199219-.597656.199219-1v-6zm0 0" fill="#f9cfcf"/><path d="m301.675781 488.152344h-118.398437c-2.199219 0-4-1.796875-4-4v-24.398438c0-17 13.800781-30.800781 30.800781-30.800781h4.398437v-3.199219c0-2.199218 1.800782-4 4-4h14 .800782c6 1.199219 12.199218 1.199219 18.199218 0h.800782 14c2.199218 0 4 1.800782 4 4v3.199219h4.398437c17 0 30.800781 13.800781 30.800781 30.800781v24.398438c.199219 2.203125-1.597656 4-3.800781 4zm-114.398437-8h110.398437v-20.398438c0-12.601562-10.199219-22.800781-22.796875-22.800781h-8.601562c-1.199219 0-2.398438-.597656-3-1.398437-.601563-.800782-1-2.199219-.800782-3.402344v-.199219-2h-9.597656c-6.800781 1.199219-13.601562 1.199219-20.402344 0h-9.597656v2.199219.203125c.199219 1.199219 0 2.398437-.800781 3.398437s-1.800781 1.398438-3 1.398438h-8.601563c-12.597656 0-22.800781 10.203125-22.800781 22.800781zm0 0" fill="#3762cc"/><path d="m282.078125 434.953125-4.800781-4.398437c-.800782-.601563-1.800782-1-3-1h-64c-1 0-2.199219.398437-3 1l-4.800782 4.398437c-.800781.601563-.800781 1.800781 0 2.402344l17.199219 17.796875v-.199219h45.402344l17-17.597656c.597656-.800781.597656-1.800781 0-2.402344zm0 0" fill="#e0ebfc"/><path d="m219.675781 459.152344c-1 0-2-.398438-2.796875-1.199219l-17.203125-17.800781c-1-1.199219-1.597656-2.597656-1.597656-4.199219 0-1.597656.800781-3 1.800781-4l4.796875-4.398437c1.601563-1.402344 3.601563-2.199219 5.601563-2.199219h64c2 0 4 .796875 5.601562 2.199219l4.796875 4.398437c1.203125 1 1.800781 2.601563 1.800781 4 0 1.601563-.597656 3-1.597656 4.199219l-17.203125 17.601562c-.796875.800782-1.796875 1.199219-2.796875 1.199219h-44.601562c-.199219 0-.398438.199219-.601563.199219zm1.601563-8.199219h42l14.199218-14.800781-3.199218-2.796875s0 0-.199219 0h-63.800781c-.199219 0-.199219 0-.199219 0l-3.199219 2.796875zm0 0" fill="#3762cc"/><path d="m459.476562 438.753906-5.398437-5c-.800781-.800781-2-1.199218-3.199219-1.199218h-71.203125c-1.199219 0-2.398437.398437-3.199219 1.199218l-5.398437 5c-.800781.800782-.800781 2-.199219 2.800782l19.199219 19.800781v-.203125h50.398437l19-19.597656c.800782-.800782.800782-2 0-2.800782zm0 0" fill="#e0ebfc"/><path d="m390.078125 465.152344c-1 0-2-.398438-2.800781-1.199219l-19.199219-19.800781c-1.199219-1.199219-1.800781-2.597656-1.601563-4.398438 0-1.601562.800782-3.199218 2-4.199218l5.402344-5c1.597656-1.402344 3.796875-2.199219 6-2.199219h71c2.199219 0 4.398438.796875 6 2.199219l5.398438 5c1.199218 1.199218 2 2.597656 2 4.199218 0 1.601563-.601563 3.199219-1.601563 4.398438l-19 19.601562c-.796875.800782-1.796875 1.199219-2.796875 1.199219h-49.601562c-.800782.199219-1 .199219-1.199219.199219zm1.597656-8h47l16.402344-16.796875-3.800781-3.402344s-.199219-.199219-.601563-.199219h-71c-.199219 0-.398437 0-.597656.199219l-3.800781 3.402344zm0 0" fill="#3762cc"/><path d="m116.277344 438.753906-5.398438-5c-.800781-.800781-2-1.199218-3.203125-1.199218h-71c-1.199219 0-2.398437.398437-3.199219 1.199218l-5.398437 5c-.800781.800782-.800781 2 0 2.800782l19.199219 19.800781v-.203125h50.398437l19-19.597656c.601563-.800782.402344-2-.398437-2.800782zm0 0" fill="#a4c9ff"/><path d="m47.078125 465.152344c-1 0-2-.398438-2.800781-1.199219l-19.199219-19.800781c-1.199219-1.199219-1.800781-2.597656-1.601563-4.199219 0-1.597656.800782-3.199219 2-4.199219l5.402344-5c1.597656-1.398437 3.796875-2.199218 6-2.199218h71c2.199219 0 4.398438.800781 6 2.199218l5.398438 5c1.199218 1.199219 2 2.601563 2 4.199219 0 1.601563-.601563 3.199219-1.601563 4.402344l-19 19.597656c-.796875.800781-1.796875 1.199219-2.796875 1.199219h-50.203125c-.199219 0-.398437 0-.597656 0zm1.597656-8h47l16.402344-16.796875-3.800781-3.402344s-.199219-.199219-.601563-.199219h-71c-.199219 0-.398437 0-.597656.199219l-3.800781 3.402344zm0 0" fill="#3762cc"/></svg>